<svg xmlns="http://www.w3.org/2000/svg" viewBox="0 0 400 400"><path d="M94.44 261.32V159.11H74v-20.44h61.32v20.44h-20.44v102.21H94.44Zm54.46 0V138.67h20.44v102.21h20.44V138.67h20.44v102.21h20.44V138.67h20.44v122.65H148.89Zm115.78 0V138.67H326v40.88h-20.44v-20.44h-20.44v81.76h20.44v-20.44H326v40.88h-61.32Z"/><path d="M200 387.25c-103.25 0-187.25-84-187.25-187.25S96.75 12.75 200 12.75s187.25 84 187.25 187.25-84 187.25-187.25 187.25Zm0-364.48c-97.73 0-177.23 79.5-177.23 177.23S102.28 377.23 200 377.23 377.23 297.72 377.23 200 297.73 22.77 200 22.77Z"/><path d="M260.09 305.49c-2.06 6.68-8.3 11.54-15.64 11.54s-13.57-4.86-15.64-11.52c-2.49 0-23.24.02-23.24.02l-43.13 73.62-8.63-5.05 46.08-78.52 29-.04c2.21-6.82 8.56-11.25 15.55-11.25s13.38 4.71 15.54 11.22l89.28-.02v10h-89.18Zm-15.64-11.19c-3.51 0-6.37 2.86-6.37 6.37s2.86 6.37 6.37 6.37 6.37-2.86 6.37-6.37-2.86-6.37-6.37-6.37Zm-97.55 23.79c-4.89-4.99-6.21-12.78-2.72-19.25 4.29-7.94 14.24-10.91 22.18-6.62s10.91 14.24 6.62 22.18c-3.43 6.36-10.5 9.53-17.26 8.34L129.5 368.1l-8.8-4.75m43.48-53.71c1.67-3.09.51-6.96-2.58-8.63s-6.96-.51-8.63 2.58-.51 6.96 2.58 8.63c3.09 1.67 6.96.51 8.63-2.58Z"/><path d="M199.84 362.72c-4.89-4.99-6.21-12.78-2.72-19.25 4.29-7.94 14.24-10.91 22.18-6.62s10.91 14.24 6.62 22.18c-3.43 6.36-10.5 9.53-17.26 8.34l-9.56 16.86-8.8-4.75m26.82-25.2c1.67-3.09.51-6.96-2.58-8.63s-6.96-.51-8.63 2.58-.51 6.96 2.58 8.63 6.96.51 8.63-2.58ZM139.13 95.65c2.06-6.68 8.3-11.54 15.64-11.54s13.57 4.86 15.64 11.52c2.49 0 23.24-.02 23.24-.02l43.13-73.62 8.63 5.05-46.08 78.52-29 .04c-2.21 6.82-8.56 11.25-15.55 11.25s-13.38-4.71-15.54-11.22l-91.94.02v-10m107.47 11.19c3.51 0 6.37-2.86 6.37-6.37s-2.86-6.37-6.37-6.37-6.37 2.86-6.37 6.37 2.86 6.37 6.37 6.37Zm97.55-23.79c4.89 4.99 6.21 12.78 2.72 19.25-4.29 7.94-14.24 10.91-22.18 6.62-7.94-4.29-10.91-14.24-6.62-22.18 3.43-6.36 10.5-9.53 17.26-8.34l26.22-45.36 8.8 4.75M235.04 91.5c-1.67 3.09-.51 6.96 2.58 8.63s6.96.51 8.63-2.58.51-6.96-2.58-8.63-6.96-.51-8.63 2.58Z"/><path d="M199.38 38.42c4.89 4.99 6.21 12.78 2.72 19.25-4.29 7.94-14.24 10.91-22.18 6.62s-10.91-14.24-6.62-22.18c3.43-6.36 10.5-9.53 17.26-8.34l9.56-16.86 8.8 4.75m-26.82 25.2c-1.67 3.09-.51 6.96 2.58 8.63s6.96.51 8.63-2.58c1.67-3.09.51-6.96-2.58-8.63s-6.96-.51-8.63 2.58Z"/></svg>