<svg xmlns="http://www.w3.org/2000/svg" id="Layer_1" version="1.1" viewBox="0 0 400 400">
  <defs>
    <clipPath id="inner-circle">
      <circle cx="200" cy="200" r="120"/>
    </clipPath>
  </defs>
  <circle id="back-circle" cx="200" cy="200" r="185" fill="#fff" stroke="#000" stroke-width="4.5"/>
  <circle id="point-left" cx="50" cy="232" r="5.5">
    <animate attributeName="r" values="5.5;5.5;7;5.5;5.5" keyTimes="0;.59;.61;.64;1" dur="5" repeatCount="indefinite" />
  </circle>
  <circle id="point-right" cx="350" cy="232" r="5.5">
    <animate attributeName="r" values="5.5;5.5;7;5.5;5.5" keyTimes="0;.59;.61;.64;1" dur="5" repeatCount="indefinite" />
  </circle>
  <circle id="center-circle" cx="200" cy="200" r="120" fill="none" fill-opacity="1" fill-rule="nonzero" stroke="#000" stroke-dasharray="none" stroke-opacity="1" stroke-width="4.5"/>
  <g id="text-elements">
    <path id="bottom-text" fill="#333" d="m120.24 341.06 3.88 2.33 10.85-18.13-2.76-1.65-9.08 15.17.36-20.39-3.87-2.31-10.84 18.12 2.77 1.66 9.1-15.2zm19.14-13.7-8.15 19.47 11.75 4.92 1.12-2.67-8.79-3.68 2.43-5.8 8.62 3.61 1.09-2.6-8.62-3.6 2.4-5.75 8.78 3.68 1.12-2.67zm16.36 6.6-5.53 20.39 5.13 1.39c6.53 1.77 10.7-1.66 12.31-7.62 1.61-5.93-.26-11-6.78-12.76zm2.34 3.67 1.76.48c4.5 1.22 5.69 4.9 4.51 9.15-1.17 4.26-4.05 6.8-8.5 5.58l-1.77-.48zm16.4 1.08-2.82 20.93 12.62 1.7.38-2.86-9.43-1.28.84-6.23 9.26 1.25.37-2.8-9.26-1.24.84-6.17 9.43 1.27.39-2.87zm17.54 2.14-.09 21.12 3.24.01.03-8.8 2.87.01 4.78 8.82 3.64.02-5.16-9.06c1.81-.14 4.57-1.94 4.59-5.87.01-3.94-2.74-6.2-6.22-6.22zm3.2 10 .02-7.33 3.33.01c2.3.01 4.05 1.04 4.03 3.65 0 2.6-1.77 3.69-4.07 3.68zm15.76-10.28 2.5 20.97 11.32-1.35-.34-2.88-8.1.97-2.15-18.1zM232.9 337l-2.51 22.42 3.35-.85.52-5.16 8.5-2.16 2.89 4.3 3.35-.85-12.89-18.52zm1.67 13.34.88-9.93.05-.01 5.54 8.3zm32.4-2.78 4.17-1.77-8.25-19.44-2.96 1.26 6.9 16.27-16.25-12.3-4.15 1.76 8.25 19.44 2.97-1.26-6.92-16.3zm.14-23.46 11.04 18 4.53-2.77c5.77-3.53 6.13-8.92 2.9-14.18-3.2-5.24-8.18-7.35-13.94-3.83zm4.28.82 1.55-.96c3.99-2.44 7.46-.78 9.75 3 2.3 3.77 2.17 7.6-1.77 10.02l-1.56.95z" aria-label="NEDERLAND" font-family="League Spartan" font-size="32" font-weight="500" letter-spacing="2" style="-inkscape-font-specification:&quot;League Spartan Medium&quot;" word-spacing="0"/>
    <path id="top-text" stroke-width="4" d="m41.77 197.4 17.34 1.24.42-5.79-17.35-1.23.36-5.1-5.04-.35-1.13 15.97 5.03.36zm-3.34-18.09 21.97 4.58 3-14.37-4.95-1.03-1.81 8.7-3.68-.76 1.8-8.67-4.77-1-1.8 8.68-3.64-.76 1.82-8.7-4.95-1.03zm25.28-27.77c-1.54 4.2-4.97 4.9-7.71 3.89-2.71-1-4.87-3.75-3.33-7.95a8.7 8.7 0 0 1 2.68-3.7l-3.75-4.02c-1.22.69-3.26 2.85-4.48 6.17-2.29 6.23.48 13.11 6.76 15.42 6.25 2.3 12.78-1.19 15.07-7.4 1.22-3.31 1.06-6.29.58-7.6l-5.47.63a8.7 8.7 0 0 1-.35 4.56zM71.28 128l7.61 4.25 2.81-5.03-19.6-10.94-2.8 5.03 7.57 4.23-3.3 5.9-7.57-4.22-2.82 5.05 19.6 10.93 2.81-5.04-7.61-4.25zm35.82-31.02-12.44-19.4-4.64 4.78 8.8 11.93-13.26-7.32L82.63 90 90.38 103l-12.2-8.4-4.64 4.78 19.78 11.84 4.83-5-6.85-10.77 10.99 6.5zm-.6-14.49c3.73 5.4 10.44 6.95 16.22 2.95 5.65-3.9 6.67-10.79 2.94-16.19a11.37 11.37 0 0 0-16.17-2.94 11.45 11.45 0 0 0-2.99 16.18zm4.98-3.44c-1.95-2.82-1.67-6.39 1.09-8.29 2.75-1.9 6.19-.91 8.14 1.91 1.96 2.84 1.68 6.4-1.08 8.31-2.75 1.9-6.19.91-8.15-1.93zm14.27-22.55 9.6 20.28 5.24-2.48-3.73-7.88.4-.19 8.01 5.85 5.89-2.78-8.82-5.96c1.43-1.02 3.07-3.72 1.24-7.59-1.85-3.9-5.57-5.05-9.17-3.35zm9.41 6.34-2.23-4.72 1.58-.75c1.35-.64 2.9-.73 3.77 1.1.87 1.82-.22 3-1.58 3.64zm26.57-9.34 3.93-12.43-6.25 1.9-3.06 10.14-2.55-8.45-5.55 1.68 6.5 21.48 5.55-1.68-2.8-9.23 8.95 7.37 6.6-2zm10.97-13.97 3.38 22.19 14.5-2.21-.75-5-8.8 1.35-.56-3.72 8.76-1.33-.74-4.82-8.75 1.33-.56-3.67 8.79-1.33-.76-5zm22.4-3 .15 22.44 5.8-.04-.06-8.72h.44l4.8 8.69 6.5-.04-5.47-9.13c1.73-.32 4.36-2.07 4.33-6.35-.03-4.32-2.92-6.94-6.9-6.91zm5.87 9.72-.04-5.22 1.75-.01c1.5 0 2.95.56 2.96 2.58.01 2.03-1.46 2.63-2.97 2.64zm27.87-8.47c-4.02-.59-8.1 1.27-8.66 5.18-.57 3.88 1.88 6.08 4.58 7.59 2.78 1.52 3.79 2.4 3.62 3.57-.16 1.04-1.09 1.56-2.86 1.3-2.28-.33-5.09-2.43-5.51-2.92l-3.53 4.4c.42.54 3.5 3.09 8.28 3.78 4.3.63 8.88-.7 9.57-5.42.54-3.75-1.8-6.24-4.97-7.9-2.56-1.36-3.51-2.15-3.36-3.2.15-1.02 1.24-1.32 2.72-1.1 1.7.24 3.45 1.65 3.91 2.14l3.42-4.2c-.4-.42-3-2.6-7.21-3.22zm32.37 27.08c-4.14-1.67-4.73-5.12-3.63-7.83 1.08-2.68 3.9-4.75 8.04-3.07 1.7.68 3.07 1.99 3.62 2.8l4.14-3.63c-.65-1.23-2.75-3.35-6.03-4.67-6.15-2.49-13.12.07-15.62 6.26-2.5 6.18.77 12.82 6.9 15.3 3.28 1.32 6.26 1.26 7.59.83l-.46-5.49a8.7 8.7 0 0 1-4.55-.5zm13.42-.64c-3.5 5.54-2.3 12.32 3.64 16.07 5.8 3.67 12.54 1.91 16.05-3.63a11.37 11.37 0 0 0-3.63-16.03 11.45 11.45 0 0 0-16.06 3.59zm5.12 3.23c1.83-2.9 5.22-4.04 8.05-2.25 2.83 1.79 3.27 5.34 1.43 8.24-1.84 2.92-5.23 4.05-8.07 2.27-2.83-1.8-3.26-5.34-1.41-8.26zm31.35 9.06-21.93 10.24 4.54 4.23 4-2.03 6.1 5.68-1.74 4.14 4.51 4.2 8.69-22.57zm-8.52 10.07 5.85-3.03.03.03-2.61 6.05zm23.4 5-17.72 13.76 8.4 10.84 4-3.1-4.86-6.25 13.74-10.66zm12.38 16.91-19.13 11.73 3.03 4.95 19.13-11.73zm3.92 17.1-15.74 7.4 2.46 5.25 15.74-7.4 2.17 4.62 4.57-2.15-6.8-14.5-4.58 2.15zm11.52 14.07-21.24 7.23 1.87 5.49 21.24-7.23zm-6.59 14.62c-6.44 1.24-10.55 6.77-9.22 13.66 1.3 6.74 7.2 10.45 13.65 9.2a11.37 11.37 0 0 0 9.19-13.62 11.45 11.45 0 0 0-13.62-9.24zm1.15 5.94c3.37-.65 6.52 1.04 7.16 4.33.63 3.29-1.66 6.03-5.03 6.68-3.39.66-6.54-1.03-7.17-4.32-.64-3.29 1.65-6.04 5.04-6.7zm-7.35 36.25.03 7.93 22.44-.1-.02-5.8-16.15.07 16.11-7.88-.03-7.87-22.44.09.03 5.8 16.25-.07z" aria-label="TECH WORKERS COALITION" font-family="League Spartan" font-size="34" font-weight="800" letter-spacing="2.5" style="-inkscape-font-specification:&quot;League Spartan Ultra-Bold&quot;;white-space:pre" word-spacing="0"/>
  </g>
  <g id="inner-elements" clip-path="url(#inner-circle)">
    <g id="inner-element-animations">
      <circle r="7" fill="#000" stroke="none">
        <animateMotion dur="5" keyPoints="0;0;1;1" keyTimes="0;.4;.6;1" repeatCount="indefinite" calcMode="linear">
          <mpath href="#line-middle" />
        </animateMotion>
      </circle>
      <circle r="7" fill="#000" stroke="none">
        <animateMotion dur="5" keyPoints="0;0;1;1" keyTimes="0;.48;.55;1" repeatCount="indefinite" calcMode="linear">
          <mpath href="#line-b1" />
        </animateMotion>
      </circle>
      <circle r="7" fill="#000" stroke="none">
        <animateMotion dur="5" keyPoints="0;0;1;1" keyTimes="0;.5;.6;1" repeatCount="indefinite" calcMode="linear">
          <mpath href="#line-b2" />
        </animateMotion>
      </circle>
      <circle r="7" fill="#000" stroke="none">
        <animateMotion dur="5" keyPoints="0;0;1;1" keyTimes="0;.45;.5;1" repeatCount="indefinite" calcMode="linear">
          <mpath href="#line-b3" />
        </animateMotion>
      </circle>
      <circle r="7" fill="#000" stroke="none">
        <animateMotion dur="5" keyPoints="0;0;1;1" keyTimes="0;.38;.5;1" repeatCount="indefinite" calcMode="linear">
          <mpath href="#line-b4" />
        </animateMotion>
      </circle>
      <circle r="7" fill="#000" stroke="none">
        <animateMotion dur="5" keyPoints="1;1;0;0" keyTimes="0;.58;.65;1" repeatCount="indefinite" calcMode="linear">
          <mpath href="#line-t1" />
        </animateMotion>
      </circle>
      <circle r="7" fill="#000" stroke="none">
        <animateMotion dur="5" keyPoints="1;1;0;0" keyTimes="0;.6;.7;1" repeatCount="indefinite" calcMode="linear">
          <mpath href="#line-t2"/>
        </animateMotion>
      </circle>
      <circle r="7" fill="#000" stroke="none">
        <animateMotion dur="5" keyPoints="1;1;0;0" keyTimes="0;.52;.57;1" repeatCount="indefinite" calcMode="linear">
          <mpath href="#line-t3"/>
        </animateMotion>
      </circle>
      <circle r="7" fill="#000" stroke="none">
        <animateMotion dur="5" keyPoints="1;1;0;0" keyTimes="0;.55;.67;1" repeatCount="indefinite" calcMode="linear">
          <mpath href="#line-t4" />
        </animateMotion>
      </circle>
    </g>
    <path id="line-middle" fill="none" fill-opacity="1" stroke="#000" stroke-dasharray="none" stroke-opacity="1" stroke-width="4" d="m 88 320 72 -120.0 h 80 l 72 -120"/>
    <g id="inner-elements-top">
      <path id="line-t1" fill="none" stroke="#000" stroke-width="4.5" d="m294 70 -54 90"/>
      <circle id="line-t1c" cx="240" cy="160" r="7.5" fill="#fff" stroke="#000" stroke-width="4">
        <animate attributeName="r" values="7.5;7.5;10;7.5;7.5" keyTimes="0;.57;.59;.63;1" dur="5" repeatCount="indefinite" />
      </circle>
      <path id="line-t2" fill="none" stroke="#000" stroke-width="4.5" d="m270 70 -60 100 H 70"/>
      <circle id="line-t2c" cx="137" cy="170" r="7.5" fill="#fff" stroke="#000" stroke-width="4">
        <animate attributeName="r" values="7.5;7.5;10;7.5;7.5" keyTimes="0;.62;.63;.66;1" dur="5" repeatCount="indefinite" />
      </circle>
      <path id="line-t3" fill="none" stroke="#000" stroke-width="4.5" d="m246 70 -33 55"/>
      <circle id="line-t3c" cx="213" cy="125" r="7.5" fill="#fff" stroke="#000" stroke-width="4">
        <animate attributeName="r" values="7.5;7.5;10;7.5;7.5" keyTimes="0;.51;.53;.56;1" dur="5" repeatCount="indefinite" />
      </circle>
      <path id="line-t4" fill="none" stroke="#000" stroke-width="4.5" d="m222 70 -42 70"/>
      <circle id="line-t4c" cx="180" cy="140" r="7.5" fill="#fff" stroke="#000" stroke-width="4">
        <animate attributeName="r" values="7.5;7.5;10;7.5;7.5" keyTimes="0;.54;.55;.58;1" dur="5" repeatCount="indefinite" />
      </circle>
    </g>
    <g id="inner-elements-bottom">
      <path id="line-b1" fill="none" stroke="#000" stroke-width="4.5" d="m106 330 54 -90"/>
      <circle id="line-b1c" cx="160" cy="240" r="7.5" fill="#fff" stroke="#000" stroke-width="4">
        <animate attributeName="r" values="7.5;7.5;10;7.5;7.5" keyTimes="0;.54;.56;.61;1" dur="5" repeatCount="indefinite" />
      </circle>
      <path id="line-b2" fill="none" stroke="#000" stroke-width="4.5" d="m130 330 60 -100 H 330"/>
      <circle id="line-b2c" cx="263" cy="230" r="7.5" fill="#fff" stroke="#000" stroke-width="4">
        <animate attributeName="r" values="7.5;7.5;10;7.5;7.5" keyTimes="0;.57;.58;.61;1" dur="5" repeatCount="indefinite" />
      </circle>
      <path id="line-b3" fill="none" stroke="#000" stroke-width="4.5" d="m154 330 33 -55"/>
      <circle id="line-b3c" cx="187" cy="275" r="7.5" fill="#fff" stroke="#000" stroke-width="4">
        <animate attributeName="r" values="7.5;7.5;10;7.5;7.5" keyTimes="0;.49;.51;.54;1" dur="5" repeatCount="indefinite" />
      </circle>
      <path id="line-b4" fill="none" stroke="#000" stroke-width="4.5" d="m178 330 42 -70"/>
      <circle id="line-b4c" cx="220" cy="260" r="7.5" fill="#fff" stroke="#000" stroke-width="4">
        <animate attributeName="r" values="7.5;7.5;10;7.5;7.5" keyTimes="0;.49;.50;.53;1" dur="5" repeatCount="indefinite" />
      </circle>
    </g>
  </g>
</svg>
